# xmcd
#
# Track frame offsets:
#	150
#	13630
#	26836
#	38899
#	50489
#	62636
#	76504
#	86302
#	96343
#	112783
#	125614
#	138297
#	150259
#	163890
#	176429
#	188231
#	203094
#	214538
#	228357
#	240714
#
# Disc length: 3343 seconds
#
# Revision: 0
# Processed by: cddbd v1.5.2PL0 Copyright (c) Steve Scherf et al.
# Submitted via: audiograbber 1.83.01
#
DISCID=f70d0d14
DTITLE=Various Artist - The Blues - The Absolutely Essential 3 CD Collection -
DTITLE=CD3
DYEAR=2011
DGENRE=Blues
TTITLE0=James Cotton - Cotton Crop Blues
TTITLE1=Muddy Waters - Mannish Boy
TTITLE2=Billy Boy Arnold - I Wish You Would
TTITLE3=Sonny Boy Williamson II (Aleck "Rice" Miller) - Don't Start Me To Talki
TTITLE3=ng
TTITLE4=Etta James - W-O-M-A-N
TTITLE5=Howlin' Wolf - Smokestack Lightnin'
TTITLE6=John Lee Hooker - Dimples
TTITLE7=Billy Boy Arnold - I Ain't Got You
TTITLE8=Otis Rush - I Can't Quit You Baby
TTITLE9=Muddy Waters - Got My Mojo Working
TTITLE10=Jimmy Reed - The Sun Is Shining
TTITLE11=Jimmy Reed - Honest I Do
TTITLE12=Slim Harpo - I'm A King Bee
TTITLE13=Slim Harpo - I've Got Love If You Want It
TTITLE14=Buddy Guy - Try To Quit You Baby
TTITLE15=Muddy Waters - She's Nineteen Years Old
TTITLE16=Howlin' Wolf - Sitting On Top Of The World
TTITLE17=Snooks Eaglin - Mean Old Frisco
TTITLE18=Howlin' Wolf - Spoonful
TTITLE19=Junior Wells - Messin' With The Kid
EXTD=
EXTT0=
EXTT1=
EXTT2=
EXTT3=
EXTT4=
EXTT5=
EXTT6=
EXTT7=
EXTT8=
EXTT9=
EXTT10=
EXTT11=
EXTT12=
EXTT13=
EXTT14=
EXTT15=
EXTT16=
EXTT17=
EXTT18=
EXTT19=
PLAYORDER=
